<svg width="266" height="246" viewBox="0 0 266 246" fill="none" xmlns="http://www.w3.org/2000/svg">
<g clip-path="url(#clip0_1_40)">
<g clip-path="url(#clip1_1_40)">
<g clip-path="url(#clip2_1_40)">
<path d="M91.3854 65.9347C91.3854 64.8435 90.9183 63.9589 90.3421 63.9589C89.7659 63.9589 89.2988 64.8435 89.2988 65.9347V154.984C89.2988 156.075 89.7659 156.96 90.3421 156.96C90.9183 156.96 91.3854 156.075 91.3854 154.984V65.9347Z" fill="#046380"/>
<g clip-path="url(#clip3_1_40)">
<g clip-path="url(#clip4_1_40)">
<g clip-path="url(#clip5_1_40)">
<g clip-path="url(#clip6_1_40)">
<path d="M104.626 65.4895H107.423L115.171 86.2098H112.004L109.422 79.0943H102.043L99.4301 86.2098H96.8477L104.626 65.4895ZM108.715 77.1589L105.763 68.9618L102.75 77.1589H108.715ZM118.337 67.368L117.907 65.4895H121.196V84.246H130.604V86.2098H118.337V67.368ZM142.255 65.2048C143.055 65.2048 143.909 65.2845 144.819 65.4439C145.734 65.6073 146.615 65.8634 147.463 66.2124C148.316 66.5653 149.029 67.0167 149.603 67.5672L147.974 69.3318C147.338 68.8577 146.744 68.4683 146.19 68.1649C145.637 67.8615 145.059 67.6338 144.457 67.4818C143.85 67.3298 143.116 67.2541 142.255 67.2541C140.903 67.2541 139.759 67.4915 138.824 67.9657C137.894 68.4398 137.135 69.0854 136.549 69.9011C135.967 70.7168 135.543 71.6373 135.277 72.6619C135.01 73.6865 134.877 74.7493 134.877 75.8496C134.877 76.8931 135 77.9217 135.246 78.9349C135.492 79.9522 135.892 80.8778 136.445 81.7128C136.998 82.5479 137.726 83.2116 138.628 83.7052C139.53 84.1987 140.636 84.4452 141.948 84.4452C143.034 84.4452 143.973 84.2215 144.764 83.7735C145.551 83.3295 146.166 82.7221 146.609 81.9519C147.047 81.1851 147.266 80.3182 147.266 79.3505V77.472H141.763L142.132 75.5366H150.156V81.4851C150.156 82.2633 150.193 83.0506 150.267 83.8475C150.337 84.6444 150.392 85.4317 150.433 86.2098H148.896L147.912 84.0467C147.01 84.9387 146.041 85.578 145.004 85.9651C143.971 86.3561 142.788 86.5514 141.456 86.5514C139.837 86.5514 138.429 86.2707 137.232 85.7089C136.031 85.1511 135.031 84.3826 134.231 83.4035C133.432 82.4284 132.837 81.3144 132.448 80.062C132.059 78.8097 131.864 77.4908 131.864 76.1058C131.864 74.0753 132.25 72.239 133.02 70.5956C133.787 68.9561 134.938 67.6469 136.476 66.6678C138.013 65.6927 139.939 65.2048 142.255 65.2048ZM154.399 65.4895H157.688V86.2098H154.829V67.368C154.829 67.3492 154.792 67.1972 154.719 66.9126C154.649 66.6279 154.583 66.3336 154.522 66.0302C154.46 65.7268 154.419 65.5464 154.399 65.4895ZM163.038 67.368L162.607 65.4895H176.042V67.4533H165.897V74.5973H173.767V76.5327H165.897V84.246H176.042V86.2098H163.038V67.368ZM179.885 67.368L179.455 65.4895H186.126C187.54 65.4895 188.821 65.6562 189.969 65.9904C191.117 66.3205 192.022 66.9029 192.686 67.738C193.355 68.573 193.689 69.7303 193.689 71.2103C193.689 71.9691 193.494 72.7 193.105 73.4019C192.715 74.1038 192.196 74.7151 191.549 75.2349C190.905 75.7586 190.194 76.1343 189.415 76.362L195.687 86.2098H192.367L186.587 76.9027H182.744V86.2098H179.885V67.368ZM186.126 67.4533H182.744V74.9673H185.204C186.229 74.9673 187.157 74.8575 187.989 74.6372C188.817 74.4209 189.477 74.0281 189.969 73.4588C190.461 72.8896 190.707 72.083 190.707 71.0396C190.707 70.2238 190.491 69.5538 190.061 69.0301C189.631 68.5104 189.067 68.1176 188.37 67.8518C187.674 67.586 186.925 67.4533 186.126 67.4533ZM204.049 65.2048C205.074 65.2048 206.074 65.3375 207.05 65.6033C208.021 65.8691 208.948 66.2483 209.829 66.7418L208.415 68.6487C207.78 68.2121 207.087 67.8649 206.336 67.607C205.591 67.3526 204.818 67.2256 204.018 67.2256C202.932 67.2256 202.01 67.4778 201.252 67.9827C200.493 68.4837 200.114 69.2846 200.114 70.3849C200.114 70.9923 200.292 71.508 200.649 71.9333C201.01 72.3619 201.487 72.7376 202.082 73.0604C202.676 73.3831 203.322 73.6962 204.018 73.9996C204.736 74.303 205.47 74.6355 206.22 74.9958C206.965 75.3561 207.652 75.7774 208.279 76.2595C208.902 76.7451 209.403 77.3337 209.78 78.0241C210.161 78.7186 210.352 79.5685 210.352 80.5744C210.352 81.9405 209.993 83.0636 209.276 83.9443C208.558 84.8283 207.615 85.4829 206.447 85.9081C205.279 86.3368 204.018 86.5514 202.666 86.5514C201.559 86.5514 200.489 86.4131 199.456 86.1358C198.419 85.8626 197.409 85.4886 196.425 85.0144L197.532 82.6805C198.208 83.2116 199.028 83.6483 199.991 83.9898C200.955 84.3313 201.877 84.5021 202.758 84.5021C203.434 84.5021 204.121 84.3826 204.818 84.1435C205.514 83.9084 206.099 83.5247 206.57 82.9936C207.042 82.4625 207.277 81.7794 207.277 80.9444C207.277 80.1093 207.062 79.4205 206.632 78.878C206.201 78.3389 205.637 77.8835 204.941 77.5118C204.244 77.1435 203.506 76.7889 202.727 76.4474C202.051 76.1439 201.375 75.8309 200.698 75.5081C200.022 75.1853 199.407 74.8062 198.854 74.3696C198.3 73.933 197.859 73.4116 197.532 72.8042C197.204 72.1968 197.04 71.4665 197.04 70.6126C197.04 69.4172 197.384 68.421 198.073 67.6241C198.757 66.8272 199.636 66.2238 200.71 65.8139C201.788 65.4081 202.901 65.2048 204.049 65.2048Z" fill="#046380"/>
<path d="M103.673 109.264V90.5075H97.0321V88.5437H113.326V90.5075H106.593V109.264H103.673ZM116.708 90.4222L116.277 88.5437H129.712V90.5075H119.567V97.6515H127.437V99.5869H119.567V107.3H129.712V109.264H116.708V90.4222ZM141.825 109.606C140.062 109.606 138.542 109.321 137.263 108.752C135.979 108.182 134.918 107.408 134.078 106.429C133.237 105.454 132.619 104.35 132.221 103.116C131.819 101.883 131.618 100.612 131.618 99.3023C131.618 97.8792 131.844 96.5073 132.295 95.1867C132.745 93.87 133.407 92.6894 134.281 91.646C135.149 90.6026 136.24 89.7772 137.552 89.1698C138.863 88.5624 140.38 88.259 142.102 88.259C142.819 88.259 143.604 88.3387 144.457 88.4981C145.305 88.6615 146.119 88.904 146.898 89.2267C147.677 89.5495 148.312 89.9764 148.804 90.5075L147.205 92.1583C146.61 91.551 145.817 91.0825 144.825 90.7523C143.829 90.4182 142.901 90.2514 142.04 90.2514C140.852 90.2514 139.806 90.5018 138.904 91.0028C138.002 91.5077 137.244 92.1868 136.629 93.0407C136.014 93.8945 135.549 94.8526 135.234 95.9153C134.914 96.9781 134.754 98.0597 134.754 99.16C134.754 100.868 135.051 102.342 135.646 103.583C136.24 104.828 137.08 105.786 138.166 106.458C139.253 107.133 140.534 107.471 142.009 107.471C142.87 107.471 143.803 107.357 144.807 107.129C145.811 106.902 146.847 106.541 147.912 106.048L148.865 107.67C148.271 108.069 147.56 108.41 146.732 108.695C145.9 108.979 145.053 109.203 144.192 109.367C143.331 109.526 142.542 109.606 141.825 109.606ZM165.805 109.264V99.4731H154.922V109.264H152.062V90.4222C152.062 90.4034 152.027 90.2514 151.958 89.9668C151.884 89.6821 151.816 89.3878 151.755 89.0844C151.693 88.781 151.652 88.6006 151.632 88.5437H154.922V97.5377H165.805V88.5437H168.664V109.264H165.805Z" fill="#046380"/>
<path d="M104.902 111.313C105.927 111.313 106.927 111.446 107.903 111.712C108.874 111.978 109.801 112.357 110.682 112.85L109.268 114.757C108.633 114.321 107.942 113.973 107.196 113.716C106.446 113.461 105.671 113.334 104.872 113.334C103.785 113.334 102.863 113.586 102.105 114.091C101.347 114.592 100.967 115.393 100.967 116.493C100.967 117.101 101.146 117.617 101.502 118.042C101.863 118.47 102.34 118.846 102.935 119.169C103.529 119.492 104.175 119.805 104.872 120.108C105.589 120.412 106.323 120.744 107.073 121.104C107.819 121.465 108.505 121.886 109.133 122.368C109.755 122.854 110.258 123.442 110.639 124.133C111.016 124.827 111.205 125.677 111.205 126.683C111.205 128.049 110.846 129.172 110.129 130.053C109.411 130.937 108.469 131.591 107.3 132.017C106.132 132.445 104.872 132.66 103.519 132.66C102.412 132.66 101.342 132.522 100.309 132.244C99.2721 131.971 98.2618 131.597 97.2781 131.123L98.3848 128.789C99.0612 129.32 99.8808 129.757 100.844 130.098C101.808 130.44 102.73 130.611 103.611 130.611C104.287 130.611 104.974 130.491 105.671 130.252C106.368 130.017 106.952 129.633 107.423 129.102C107.895 128.571 108.13 127.888 108.13 127.053C108.13 126.218 107.915 125.529 107.485 124.987C107.054 124.447 106.491 123.992 105.794 123.62C105.097 123.252 104.359 122.897 103.58 122.556C102.904 122.252 102.228 121.939 101.551 121.617C100.875 121.294 100.26 120.915 99.7068 120.478C99.1534 120.042 98.7125 119.52 98.3848 118.913C98.0571 118.305 97.8929 117.575 97.8929 116.721C97.8929 115.526 98.2372 114.53 98.9259 113.733C99.6102 112.936 100.492 112.332 101.57 111.922C102.644 111.517 103.754 111.313 104.902 111.313ZM114.34 111.598H117.722V125.374C117.722 126.986 118.153 128.277 119.013 129.244C119.874 130.212 121.227 130.696 123.072 130.696C124.978 130.696 126.418 130.165 127.394 129.102C128.366 128.039 128.851 126.664 128.851 124.975V111.598H131.218V124.975C131.218 126.569 130.897 127.939 130.253 129.085C129.606 130.235 128.667 131.117 127.437 131.732C126.207 132.351 124.711 132.66 122.949 132.66C120.386 132.66 118.388 132.043 116.954 130.81C115.519 129.576 114.802 127.764 114.802 125.374V113.476L114.34 111.598ZM136.168 111.598H140.318L145.76 125.061C145.944 125.535 146.125 126 146.301 126.455C146.473 126.911 146.652 127.433 146.836 128.021C147 127.451 147.164 126.943 147.328 126.495C147.492 126.051 147.666 125.601 147.85 125.146L153.261 111.598H156.981V132.318H154.153V117.319C154.153 116.977 154.163 116.645 154.184 116.323C154.204 116 154.225 115.64 154.245 115.241C154.122 115.545 153.989 115.858 153.845 116.18C153.702 116.503 153.569 116.825 153.446 117.148L147.42 132.347H145.698L139.611 117.006C139.509 116.721 139.386 116.421 139.242 116.106C139.099 115.795 138.976 115.507 138.874 115.241C138.915 115.601 138.941 115.934 138.953 116.237C138.961 116.541 138.966 116.854 138.966 117.177V132.318H136.629V113.476L136.168 111.598ZM161.931 111.598H166.081L171.523 125.061C171.707 125.535 171.887 126 172.064 126.455C172.236 126.911 172.414 127.433 172.599 128.021C172.763 127.451 172.926 126.943 173.091 126.495C173.255 126.051 173.429 125.601 173.613 125.146L179.024 111.598H182.744V132.318H179.916V117.319C179.916 116.977 179.926 116.645 179.946 116.323C179.967 116 179.987 115.64 180.008 115.241C179.885 115.545 179.751 115.858 179.608 116.18C179.465 116.503 179.331 116.825 179.208 117.148L173.183 132.347H171.461L165.374 117.006C165.271 116.721 165.148 116.421 165.005 116.106C164.862 115.795 164.739 115.507 164.636 115.241C164.677 115.601 164.704 115.934 164.716 116.237C164.724 116.541 164.728 116.854 164.728 117.177V132.318H162.392V113.476L161.931 111.598ZM188.062 113.476L187.632 111.598H201.067V113.562H190.922V120.706H198.792V122.641H190.922V130.354H201.067V132.318H188.062V113.476ZM204.91 113.476L204.479 111.598H211.151C212.565 111.598 213.846 111.765 214.993 112.099C216.141 112.429 217.049 113.011 217.717 113.846C218.381 114.682 218.713 115.839 218.713 117.319C218.713 118.078 218.518 118.809 218.129 119.51C217.74 120.212 217.224 120.824 216.58 121.343C215.932 121.867 215.219 122.243 214.44 122.47L220.712 132.318H217.391L211.612 123.011H207.769V132.318H204.91V113.476ZM211.151 113.562H207.769V121.076H210.228C211.253 121.076 212.182 120.966 213.014 120.746C213.842 120.529 214.502 120.137 214.993 119.567C215.485 118.998 215.731 118.191 215.731 117.148C215.731 116.332 215.516 115.662 215.086 115.139C214.655 114.619 214.091 114.226 213.395 113.96C212.698 113.694 211.95 113.562 211.151 113.562Z" fill="#046380"/>
<path d="M104.902 134.368C105.927 134.368 106.927 134.5 107.903 134.766C108.874 135.032 109.801 135.411 110.682 135.905L109.268 137.812C108.633 137.375 107.942 137.028 107.196 136.77C106.446 136.515 105.671 136.388 104.872 136.388C103.785 136.388 102.863 136.641 102.105 137.146C101.347 137.647 100.967 138.447 100.967 139.548C100.967 140.155 101.146 140.671 101.502 141.096C101.863 141.525 102.34 141.9 102.935 142.223C103.529 142.546 104.175 142.859 104.872 143.162C105.589 143.466 106.323 143.798 107.073 144.159C107.819 144.519 108.505 144.94 109.133 145.422C109.755 145.908 110.258 146.497 110.639 147.187C111.016 147.881 111.205 148.731 111.205 149.737C111.205 151.103 110.846 152.226 110.129 153.107C109.411 153.991 108.469 154.646 107.3 155.071C106.132 155.5 104.872 155.714 103.519 155.714C102.412 155.714 101.342 155.576 100.309 155.299C99.2721 155.025 98.2618 154.651 97.2781 154.177L98.3848 151.843C99.0612 152.374 99.8808 152.811 100.844 153.153C101.808 153.494 102.73 153.665 103.611 153.665C104.287 153.665 104.974 153.545 105.671 153.306C106.368 153.071 106.952 152.688 107.423 152.156C107.895 151.625 108.13 150.942 108.13 150.107C108.13 149.272 107.915 148.583 107.485 148.041C107.054 147.502 106.491 147.046 105.794 146.675C105.097 146.306 104.359 145.952 103.58 145.61C102.904 145.307 102.228 144.994 101.551 144.671C100.875 144.348 100.26 143.969 99.7068 143.532C99.1534 143.096 98.7125 142.574 98.3848 141.967C98.0571 141.36 97.8929 140.629 97.8929 139.775C97.8929 138.58 98.2372 137.584 98.9259 136.787C99.6102 135.99 100.492 135.387 101.57 134.977C102.644 134.571 103.754 134.368 104.902 134.368ZM123.779 155.714C122.016 155.714 120.495 155.43 119.216 154.86C117.933 154.291 116.872 153.517 116.031 152.538C115.191 151.563 114.572 150.458 114.174 149.225C113.773 147.991 113.572 146.72 113.572 145.411C113.572 143.988 113.798 142.616 114.248 141.295C114.699 139.979 115.359 138.798 116.228 137.755C117.101 136.711 118.194 135.886 119.505 135.278C120.817 134.671 122.334 134.368 124.055 134.368C124.773 134.368 125.557 134.447 126.41 134.607C127.259 134.77 128.072 135.013 128.851 135.335C129.63 135.658 130.265 136.085 130.757 136.616L129.159 138.267C128.564 137.66 127.771 137.191 126.779 136.861C125.783 136.527 124.855 136.36 123.994 136.36C122.805 136.36 121.76 136.61 120.858 137.111C119.956 137.616 119.198 138.295 118.583 139.149C117.968 140.003 117.503 140.961 117.187 142.024C116.868 143.087 116.708 144.168 116.708 145.269C116.708 146.976 117.005 148.451 117.599 149.692C118.194 150.937 119.034 151.895 120.12 152.566C121.207 153.242 122.487 153.58 123.963 153.58C124.824 153.58 125.757 153.466 126.761 153.238C127.765 153.01 128.8 152.65 129.866 152.156L130.819 153.779C130.224 154.177 129.511 154.519 128.679 154.803C127.851 155.088 127.007 155.312 126.146 155.475C125.285 155.635 124.496 155.714 123.779 155.714ZM147.758 155.373V145.582H136.875V155.373H134.016V136.531C134.016 136.512 133.979 136.36 133.905 136.075C133.836 135.791 133.77 135.496 133.709 135.193C133.647 134.89 133.606 134.709 133.586 134.652H136.875V143.646H147.758V134.652H150.617V155.373H147.758ZM164.605 155.686C162.945 155.686 161.496 155.401 160.258 154.832C159.016 154.263 157.985 153.479 157.166 152.481C156.346 151.486 155.731 150.354 155.321 149.083C154.911 147.811 154.706 146.464 154.706 145.041C154.706 143.618 154.907 142.265 155.309 140.982C155.707 139.703 156.315 138.565 157.135 137.567C157.955 136.572 158.99 135.791 160.24 135.222C161.49 134.652 162.956 134.368 164.636 134.368C166.317 134.368 167.778 134.652 169.02 135.222C170.258 135.791 171.287 136.572 172.107 137.567C172.926 138.565 173.538 139.703 173.939 140.982C174.337 142.265 174.536 143.618 174.536 145.041C174.536 146.464 174.331 147.815 173.921 149.094C173.511 150.376 172.896 151.512 172.076 152.498C171.256 153.485 170.227 154.263 168.989 154.832C167.747 155.401 166.286 155.686 164.605 155.686ZM164.636 153.75C165.948 153.75 167.045 153.494 167.926 152.982C168.807 152.47 169.514 151.786 170.047 150.933C170.58 150.079 170.965 149.139 171.203 148.115C171.437 147.09 171.553 146.066 171.553 145.041C171.553 144.016 171.437 142.992 171.203 141.967C170.965 140.942 170.58 140.007 170.047 139.161C169.514 138.318 168.803 137.641 167.913 137.128C167.02 136.616 165.927 136.36 164.636 136.36C163.345 136.36 162.255 136.616 161.365 137.128C160.472 137.641 159.765 138.324 159.244 139.178C158.719 140.032 158.34 140.971 158.106 141.996C157.868 143.02 157.75 144.045 157.75 145.069C157.75 146.094 157.868 147.113 158.106 148.126C158.34 149.143 158.719 150.079 159.244 150.933C159.765 151.786 160.472 152.47 161.365 152.982C162.255 153.494 163.345 153.75 164.636 153.75ZM187.263 155.686C185.603 155.686 184.154 155.401 182.916 154.832C181.674 154.263 180.643 153.479 179.823 152.481C179.004 151.486 178.389 150.354 177.979 149.083C177.569 147.811 177.364 146.464 177.364 145.041C177.364 143.618 177.565 142.265 177.966 140.982C178.364 139.703 178.973 138.565 179.793 137.567C180.612 136.572 181.648 135.791 182.898 135.222C184.148 134.652 185.613 134.368 187.294 134.368C188.974 134.368 190.436 134.652 191.678 135.222C192.916 135.791 193.945 136.572 194.764 137.567C195.584 138.565 196.195 139.703 196.597 140.982C196.995 142.265 197.193 143.618 197.193 145.041C197.193 146.464 196.988 147.815 196.578 149.094C196.168 150.376 195.553 151.512 194.734 152.498C193.914 153.485 192.885 154.263 191.647 154.832C190.405 155.401 188.944 155.686 187.263 155.686ZM187.294 153.75C188.605 153.75 189.702 153.494 190.583 152.982C191.465 152.47 192.172 151.786 192.705 150.933C193.238 150.079 193.623 149.139 193.861 148.115C194.094 147.09 194.211 146.066 194.211 145.041C194.211 144.016 194.094 142.992 193.861 141.967C193.623 140.942 193.238 140.007 192.705 139.161C192.172 138.318 191.461 137.641 190.571 137.128C189.678 136.616 188.585 136.36 187.294 136.36C186.003 136.36 184.913 136.616 184.023 137.128C183.129 137.641 182.422 138.324 181.902 139.178C181.377 140.032 180.998 140.971 180.764 141.996C180.526 143.02 180.407 144.045 180.407 145.069C180.407 146.094 180.526 147.113 180.764 148.126C180.998 149.143 181.377 150.079 181.902 150.933C182.422 151.786 183.129 152.47 184.023 152.982C184.913 153.494 186.003 153.75 187.294 153.75ZM201.251 136.531L200.821 134.652H204.11V153.409H213.518V155.373H201.251V136.531Z" fill="#046380"/>
</g>
</g>
</g>
</g>
<g clip-path="url(#clip7_1_40)">
<g clip-path="url(#clip8_1_40)">
<path d="M51.6709 110.276C51.6709 110.731 51.6709 111.183 51.6709 112.036C51.6709 114.253 52.761 115.284 54.8476 115.284C55.5235 115.284 56.8045 115.284 57.4793 115.284C59.9669 115.284 61.6593 117.156 61.6593 119.15C61.6593 119.491 61.6593 120.574 61.6593 121.198C61.6593 123.416 60.574 124.752 58.0368 124.752C57.6063 124.752 55.4767 124.752 54.9861 124.752C52.3171 124.752 50.9264 123.622 50.9264 121.315C50.9264 120.974 50.9264 119.976 50.9264 119.408C50.9264 117.588 49.5146 116.395 47.7945 116.395C47.2418 116.395 43.9267 116.395 43.2518 116.395C40.98 116.395 40.4273 117.816 40.4273 119.408C40.4273 119.977 40.4273 122.31 40.4273 123.163C40.4273 125.153 41.7169 125.835 43.3749 125.835C44.1729 125.835 45.3127 125.835 46.1727 125.835C49.3323 125.835 50.85 127.118 50.85 129.167C50.85 129.849 50.85 129.502 50.85 130.582C50.85 132.91 52.2799 133.791 54.5546 133.791C56.3348 133.791 58.6324 133.791 59.2462 133.791C61.5686 133.791 62.7036 132.657 62.7036 130.717C62.7036 129.921 62.7036 129.812 62.7036 129.13C62.7036 126.458 64.3034 125.606 67.3742 125.606C68.2333 125.606 70.1748 125.606 70.6044 125.606C72.3856 125.606 73.2055 124.582 73.2055 123.218C73.2055 121.854 73.2055 119.523 73.2055 117.703C73.2055 115.885 72.1002 115.032 69.9515 115.032C69.0294 115.032 67.1871 115.032 66.0817 115.032C63.7727 115.032 61.7023 113.415 61.7023 110.428C61.7023 109.461 61.7023 109.634 61.7023 108.667C61.7023 106.45 60.6122 105.42 58.5246 105.42C57.8487 105.42 56.5687 105.42 55.8929 105.42C53.4053 105.42 51.7129 103.548 51.7129 101.554C51.7129 101.213 51.7129 100.131 51.7129 99.5057C51.7129 97.2885 52.7992 95.9523 55.3364 95.9523C55.7659 95.9523 57.8955 95.9523 58.3862 95.9523C61.0551 95.9523 62.4468 97.0817 62.4468 99.3891C62.4468 99.7302 62.4468 100.728 62.4468 101.296C62.4468 103.116 63.8586 104.309 65.5787 104.309C66.1314 104.309 69.4446 104.309 70.1204 104.309C72.3923 104.309 72.9449 102.888 72.9449 101.296C72.9449 100.727 72.9449 98.394 72.9449 97.5412C72.9449 95.552 71.6553 94.8697 69.9973 94.8697C69.1993 94.8697 68.0596 94.8697 67.1995 94.8697C64.04 94.8697 62.5222 93.5866 62.5222 91.5381C62.5222 90.8559 62.5222 91.2792 62.5222 90.1984C62.5222 87.8715 61.162 86.9136 58.8873 86.9136C57.1071 86.9136 54.7398 86.9136 54.126 86.9136C51.8036 86.9136 50.6686 88.0483 50.6686 89.9889C50.6686 90.7843 50.6686 90.893 50.6686 91.5752C50.6686 94.2467 49.0688 95.0995 45.998 95.0995C45.1389 95.0995 43.1964 95.0995 42.7669 95.0995C40.9866 95.0995 40.1667 96.1228 40.1667 97.4873C40.1667 98.8518 40.1667 101.182 40.1667 103.002C40.1667 104.821 41.2711 105.674 43.4217 105.674C44.3419 105.674 46.1842 105.674 47.2895 105.674C49.6005 105.671 51.6709 107.288 51.6709 110.276Z" fill="#046380"/>
<path d="M80.4753 115.08C82.3319 115.08 83.8363 113.686 83.8363 111.968V109.593C83.8363 107.874 82.3319 106.48 80.4753 106.48H77.9095C76.0539 106.48 74.5486 107.874 74.5486 109.593V111.968C74.5486 113.687 76.0539 115.08 77.9095 115.08H80.4753Z" fill="#046380"/>
<path d="M33.2033 95.0977C34.3086 95.0977 35.1525 95.0977 36.0746 95.0977C38.2232 95.0977 39.3286 94.2449 39.3286 92.4262C39.3286 91.9234 39.3286 90.969 39.3286 90.6818C39.4365 87.8592 41.4515 86.5654 43.6985 86.5654C44.8029 86.5654 45.6487 86.5654 46.5698 86.5654C48.7204 86.5654 49.8248 85.7126 49.8248 83.8939C49.8248 82.0752 49.8248 81.59 49.8248 80.2256C49.8248 78.8611 49.0058 77.8378 47.2246 77.8378C46.7951 77.8378 42.6476 77.8378 41.7885 77.8378C40.0264 77.8378 39.2771 78.5933 39.2771 80.2963C39.2771 80.922 39.2771 82.1053 39.2771 82.4473C39.2771 84.387 37.6725 86.2057 35.2956 86.3038C33.8772 86.3038 31.8621 86.3038 31.2923 86.3038C29.5311 86.3038 28.7809 87.0594 28.7809 88.7623C28.7809 89.388 28.7809 90.6385 28.7809 90.9787C28.7809 92.9724 27.0904 94.845 24.6009 94.845C23.926 94.845 22.645 94.845 21.9692 94.845C19.8807 94.845 18.7915 95.8745 18.7915 98.0918C18.7915 99.0577 18.7915 99.8398 18.7915 100.806C18.7915 103.794 16.7221 105.41 14.4121 105.41C13.3067 105.41 11.4644 105.41 10.5423 105.41C8.39364 105.41 7.28827 106.263 7.28827 108.081C7.28827 108.317 7.28827 113.826 7.28827 114.061C7.28827 115.88 8.39364 116.732 10.5423 116.732C11.4644 116.732 13.3067 116.732 14.4121 116.732C16.7221 116.732 18.7915 117.659 18.7915 120.648C18.7915 121.614 18.7915 121.813 18.7915 122.779C18.7915 124.997 19.8816 126.026 21.9692 126.026C22.645 126.026 23.926 126.026 24.6009 126.026C27.0894 126.026 28.7809 127.899 28.7809 129.892C28.7809 130.234 28.7809 131.511 28.7809 132.136C28.7809 133.839 29.5311 134.595 31.2923 134.595C31.865 134.595 33.8944 134.595 35.3138 134.595L35.2937 134.616C37.6715 134.713 39.2751 136.533 39.2751 138.473C39.2751 138.814 39.2751 139.998 39.2751 140.623C39.2751 142.326 40.0245 143.081 41.7866 143.081C42.6457 143.081 46.7922 143.081 47.2218 143.081C49.0029 143.081 49.8229 142.058 49.8229 140.693C49.8229 139.329 49.8229 138.845 49.8229 137.025C49.8229 135.205 48.7175 134.353 46.5688 134.353C45.6477 134.353 44.802 134.353 43.6966 134.353C41.4553 134.353 39.446 133.065 39.3286 130.258C39.3286 129.923 39.3286 129.046 39.3286 128.444C39.3286 126.624 38.2232 125.773 36.0746 125.773C35.1525 125.773 34.3086 125.773 33.2033 125.773C30.8923 125.773 28.8219 124.157 28.8219 121.169C28.8219 120.714 28.8219 120.58 28.8219 119.726C28.8219 117.509 29.9129 116.479 32.0005 116.479C32.6764 116.479 33.9564 116.479 34.6313 116.479C37.1198 116.479 38.8122 114.607 38.8122 112.613C38.8122 112.388 38.8122 109.753 38.8122 109.528C38.8122 107.534 37.1207 105.662 34.6313 105.662C33.9564 105.662 32.6764 105.662 32.0005 105.662C29.912 105.662 28.8219 104.631 28.8219 102.415C28.8219 101.562 28.8219 99.9007 28.8219 99.4456C28.8219 96.4587 30.8923 95.0977 33.2033 95.0977Z" fill="#046380"/>
</g>
</g>
</g>
</g>
</g>
<defs>
<clipPath id="clip0_1_40">
<rect width="214" height="92.919" fill="white" transform="translate(7 64)"/>
</clipPath>
<clipPath id="clip1_1_40">
<rect width="213.424" height="93.0012" fill="white" transform="translate(7.28827 63.9589)"/>
</clipPath>
<clipPath id="clip2_1_40">
<rect width="213.424" height="93.0012" fill="white" transform="translate(7.28827 63.9589)"/>
</clipPath>
<clipPath id="clip3_1_40">
<rect width="123.864" height="92.5387" fill="white" transform="translate(96.8477 64.1902)"/>
</clipPath>
<clipPath id="clip4_1_40">
<rect width="123.864" height="92.5387" fill="white" transform="translate(96.8477 64.1902)"/>
</clipPath>
<clipPath id="clip5_1_40">
<rect width="123.864" height="92.5387" fill="white" transform="translate(96.8477 64.1902)"/>
</clipPath>
<clipPath id="clip6_1_40">
<rect width="123.864" height="92.5387" fill="white" transform="translate(96.8477 64.1902)"/>
</clipPath>
<clipPath id="clip7_1_40">
<rect width="76.5481" height="65.2433" fill="white" transform="translate(7.28827 77.8378)"/>
</clipPath>
<clipPath id="clip8_1_40">
<rect width="76.5481" height="65.2433" fill="white" transform="translate(7.28827 77.8378)"/>
</clipPath>
</defs>
</svg>
